{
  "accessors": [
    {
      "bufferView": 2,
      "componentType": 5126,
      "count": 2815,
      "max": [
        1.7583999633789063,
        3.569000005722046,
        8.651599884033203
      ],
      "min": [
        -2.043800115585327,
        -5.859399795532227,
        2.2704999446868896
      ],
      "type": "VEC3"
    },
    {
      "bufferView": 2,
      "byteOffset": 33780,
      "componentType": 5126,
      "count": 2815,
      "max": [
        1.0,
        0.9999961256980896,
        0.9997795224189758
      ],
      "min": [
        -1.0,
        -0.9999961256980896,
        -0.9997795224189758
      ],
      "type": "VEC3"
    },
    {
      "bufferView": 3,
      "componentType": 5126,
      "count": 2815,
      "max": [
        1.0,
        0.9997795224189758,
        1.0,
        1.0
      ],
      "min": [
        -1.0,
        -0.9997837543487549,
        -1.0,
        -1.0
      ],
      "type": "VEC4"
    },
    {
      "bufferView": 1,
      "componentType": 5126,
      "count": 2815,
      "max": [
        0.8942670226097107,
        0.8967670202255249
      ],
      "min": [
        0.004999999888241291,
        0.004999999888241291
      ],
      "type": "VEC2"
    },
    {
      "bufferView": 0,
      "componentType": 5125,
      "count": 5634,
      "type": "SCALAR"
    },
    {
      "bufferView": 2,
      "byteOffset": 67560,
      "componentType": 5126,
      "count": 2855,
      "max": [
        1.6643999814987183,
        -0.8173999786376953,
        8.651599884033203
      ],
      "min": [
        -1.618499994277954,
        -5.859399795532227,
        4.366199970245361
      ],
      "type": "VEC3"
    },
    {
      "bufferView": 2,
      "byteOffset": 101820,
      "componentType": 5126,
      "count": 2855,
      "max": [
        1.0,
        0.8894102573394775,
        0.9113293886184692
      ],
      "min": [
        -1.0,
        -0.7660608887672424,
        -0.7544208765029907
      ],
      "type": "VEC3"
    },
    {
      "bufferView": 3,
      "byteOffset": 45040,
      "componentType": 5126,
      "count": 2855,
      "max": [
        1.0,
        0.7735792994499207,
        1.0,
        1.0
      ],
      "min": [
        -0.9999999403953552,
        -0.9997376799583435,
        -1.0,
        -1.0
      ],
      "type": "VEC4"
    },
    {
      "bufferView": 1,
      "byteOffset": 22520,
      "componentType": 5126,
      "count": 2855,
      "max": [
        0.8663439750671387,
        0.8698070049285889
      ],
      "min": [
        0.004999999888241291,
        0.004999999888241291
      ],
      "type": "VEC2"
    },
    {
      "bufferView": 0,
      "byteOffset": 22536,
      "componentType": 5125,
      "count": 6516,
      "type": "SCALAR"
    },
    {
      "bufferView": 2,
      "byteOffset": 136080,
      "componentType": 5126,
      "count": 10057,
      "max": [
        2.0625,
        2.3859000205993652,
        5.412899971008301
      ],
      "min": [
        -1.951300024986267,
        -4.200099945068359,
        3.3475000858306885
      ],
      "type": "VEC3"
    },
    {
      "bufferView": 2,
      "byteOffset": 256764,
      "componentType": 5126,
      "count": 10057,
      "max": [
        1.0,
        1.0,
        1.0
      ],
      "min": [
        -1.0,
        -1.0,
        -1.0
      ],
      "type": "VEC3"
    },
    {
      "bufferView": 3,
      "byteOffset": 90720,
      "componentType": 5126,
      "count": 10057,
      "max": [
        1.0,
        1.0,
        1.0,
        1.0
      ],
      "min": [
        -1.0,
        -1.0,
        -1.0,
        -1.0
      ],
      "type": "VEC4"
    },
    {
      "bufferView": 1,
      "byteOffset": 45360,
      "componentType": 5126,
      "count": 10057,
      "max": [
        0.8402519822120667,
        0.893231987953186
      ],
      "min": [
        0.004999999888241291,
        0.004999999888241291
      ],
      "type": "VEC2"
    },
    {
      "bufferView": 0,
      "byteOffset": 48600,
      "componentType": 5125,
      "count": 20604,
      "type": "SCALAR"
    },
    {
      "bufferView": 2,
      "byteOffset": 377448,
      "componentType": 5126,
      "count": 11970,
      "max": [
        2.0352001190185547,
        4.052599906921387,
        3.4119999408721924
      ],
      "min": [
        -2.3749001026153564,
        -7.570199966430664,
        0.5493000149726868
      ],
      "type": "VEC3"
    },
    {
      "bufferView": 2,
      "byteOffset": 521088,
      "componentType": 5126,
      "count": 11970,
      "max": [
        1.0,
        1.0,
        1.0
      ],
      "min": [
        -1.0,
        -1.0,
        -1.0
      ],
      "type": "VEC3"
    },
    {
      "bufferView": 3,
      "byteOffset": 251632,
      "componentType": 5126,
      "count": 11970,
      "max": [
        1.0,
        1.0,
        1.0,
        1.0
      ],
      "min": [
        -1.0,
        -1.0,
        -1.0,
        -1.0
      ],
      "type": "VEC4"
    },
    {
      "bufferView": 1,
      "byteOffset": 125816,
      "componentType": 5126,
      "count": 11970,
      "max": [
        0.9034810066223145,
        0.8970549702644348
      ],
      "min": [
        0.004999999888241291,
        0.004999999888241291
      ],
      "type": "VEC2"
    },
    {
      "bufferView": 0,
      "byteOffset": 131016,
      "componentType": 5125,
      "count": 25539,
      "type": "SCALAR"
    },
    {
      "bufferView": 2,
      "byteOffset": 664728,
      "componentType": 5126,
      "count": 14512,
      "max": [
        1.711400032043457,
        2.4200000762939453,
        1.544100046157837
      ],
      "min": [
        -2.058300018310547,
        0.8913999795913696,
        0.015599999576807022
      ],
      "type": "VEC3"
    },
    {
      "bufferView": 2,
      "byteOffset": 838872,
      "componentType": 5126,
      "count": 14512,
      "max": [
        1.0,
        1.0,
        1.0
      ],
      "min": [
        -1.0,
        -1.0,
        -1.0
      ],
      "type": "VEC3"
    },
    {
      "bufferView": 3,
      "byteOffset": 443152,
      "componentType": 5126,
      "count": 14512,
      "max": [
        1.0,
        1.0,
        1.0,
        1.0
      ],
      "min": [
        -1.0,
        -1.0,
        -1.0,
        -1.0
      ],
      "type": "VEC4"
    },
    {
      "bufferView": 1,
      "byteOffset": 221576,
      "componentType": 5126,
      "count": 14512,
      "max": [
        0.9935550093650818,
        0.9950000047683716
      ],
      "min": [
        0.004999999888241291,
        0.004999999888241291
      ],
      "type": "VEC2"
    },
    {
      "bufferView": 0,
      "byteOffset": 233172,
      "componentType": 5125,
      "count": 29196,
      "type": "SCALAR"
    },
    {
      "bufferView": 2,
      "byteOffset": 1013016,
      "componentType": 5126,
      "count": 14460,
      "max": [
        1.711400032043457,
        -3.136699914932251,
        1.544100046157837
      ],
      "min": [
        -2.058300018310547,
        -4.665200233459473,
        0.015599999576807022
      ],
      "type": "VEC3"
    },
    {
      "bufferView": 2,
      "byteOffset": 1186536,
      "componentType": 5126,
      "count": 14460,
      "max": [
        1.0,
        1.0,
        1.0
      ],
      "min": [
        -1.0,
        -1.0,
        -1.0
      ],
      "type": "VEC3"
    },
    {
      "bufferView": 3,
      "byteOffset": 675344,
      "componentType": 5126,
      "count": 14460,
      "max": [
        1.0,
        1.0,
        1.0,
        1.0
      ],
      "min": [
        -1.0,
        -1.0,
        -1.0,
        -1.0
      ],
      "type": "VEC4"
    },
    {
      "bufferView": 1,
      "byteOffset": 337672,
      "componentType": 5126,
      "count": 14460,
      "max": [
        0.9743800163269043,
        0.9834460020065308
      ],
      "min": [
        0.004999999888241291,
        0.004999999888241291
      ],
      "type": "VEC2"
    },
    {
      "bufferView": 0,
      "byteOffset": 349956,
      "componentType": 5125,
      "count": 29196,
      "type": "SCALAR"
    },
    {
      "bufferView": 2,
      "byteOffset": 1360056,
      "componentType": 5126,
      "count": 14495,
      "max": [
        1.711400032043457,
        -4.938799858093262,
        1.544100046157837
      ],
      "min": [
        -2.058300018310547,
        -6.467400074005127,
        0.015599999576807022
      ],
      "type": "VEC3"
    },
    {
      "bufferView": 2,
      "byteOffset": 1533996,
      "componentType": 5126,
      "count": 14495,
      "max": [
        1.0,
        1.0,
        1.0
      ],
      "min": [
        -1.0,
        -1.0,
        -1.0
      ],
      "type": "VEC3"
    },
    {
      "bufferView": 3,
      "byteOffset": 906704,
      "componentType": 5126,
      "count": 14495,
      "max": [
        1.0,
        1.0,
        1.0,
        1.0
      ],
      "min": [
        -1.0,
        -1.0,
        -1.0,
        -1.0
      ],
      "type": "VEC4"
    },
    {
      "bufferView": 1,
      "byteOffset": 453352,
      "componentType": 5126,
      "count": 14495,
      "max": [
        0.9844070076942444,
        0.9921119809150696
      ],
      "min": [
        0.004999999888241291,
        0.004999999888241291
      ],
      "type": "VEC2"
    },
    {
      "bufferView": 0,
      "byteOffset": 466740,
      "componentType": 5125,
      "count": 29196,
      "type": "SCALAR"
    }
  ],
  "asset": {
    "extras": {
      "author": "azlan (https://sketchfab.com/azlan)",
      "license": "CC-BY-4.0 (http://creativecommons.org/licenses/by/4.0/)",
      "source": "https://sketchfab.com/3d-models/buk-missile-system-7663f9fca2ce485da8c0fafcf2d40d10",
      "title": "BUK Missile System"
    },
    "generator": "Sketchfab-12.67.0",
    "version": "2.0"
  },
  "bufferViews": [
    {
      "buffer": 0,
      "byteLength": 583524,
      "name": "floatBufferViews",
      "target": 34963
    },
    {
      "buffer": 0,
      "byteLength": 569312,
      "byteOffset": 583524,
      "byteStride": 8,
      "name": "floatBufferViews",
      "target": 34962
    },
    {
      "buffer": 0,
      "byteLength": 1707936,
      "byteOffset": 1152836,
      "byteStride": 12,
      "name": "floatBufferViews",
      "target": 34962
    },
    {
      "buffer": 0,
      "byteLength": 1138624,
      "byteOffset": 2860772,
      "byteStride": 16,
      "name": "floatBufferViews",
      "target": 34962
    }
  ],
  "buffers": [
    {
      "byteLength": 3999396,
      "uri": "scene.bin"
    }
  ],
  "images": [
    {
      "uri": "textures/Scene_-_Root_baseColor.png"
    },
    {
      "uri": "textures/Scene_-_Root_metallicRoughness.png"
    },
    {
      "uri": "textures/Scene_-_Root_normal.png"
    }
  ],
  "materials": [
    {
      "doubleSided": true,
      "name": "Scene_-_Root",
      "normalTexture": {
        "index": 2
      },
      "occlusionTexture": {
        "index": 1
      },
      "pbrMetallicRoughness": {
        "baseColorTexture": {
          "index": 0
        },
        "metallicRoughnessTexture": {
          "index": 1
        },
        "roughnessFactor": 0.11771483991131093
      }
    }
  ],
  "meshes": [
    {
      "name": "Object_0",
      "primitives": [
        {
          "attributes": {
            "NORMAL": 1,
            "POSITION": 0,
            "TANGENT": 2,
            "TEXCOORD_0": 3
          },
          "indices": 4,
          "material": 0,
          "mode": 4
        }
      ]
    },
    {
      "name": "Object_1",
      "primitives": [
        {
          "attributes": {
            "NORMAL": 6,
            "POSITION": 5,
            "TANGENT": 7,
            "TEXCOORD_0": 8
          },
          "indices": 9,
          "material": 0,
          "mode": 4
        }
      ]
    },
    {
      "name": "Object_2",
      "primitives": [
        {
          "attributes": {
            "NORMAL": 11,
            "POSITION": 10,
            "TANGENT": 12,
            "TEXCOORD_0": 13
          },
          "indices": 14,
          "material": 0,
          "mode": 4
        }
      ]
    },
    {
      "name": "Object_3",
      "primitives": [
        {
          "attributes": {
            "NORMAL": 16,
            "POSITION": 15,
            "TANGENT": 17,
            "TEXCOORD_0": 18
          },
          "indices": 19,
          "material": 0,
          "mode": 4
        }
      ]
    },
    {
      "name": "Object_4",
      "primitives": [
        {
          "attributes": {
            "NORMAL": 21,
            "POSITION": 20,
            "TANGENT": 22,
            "TEXCOORD_0": 23
          },
          "indices": 24,
          "material": 0,
          "mode": 4
        }
      ]
    },
    {
      "name": "Object_5",
      "primitives": [
        {
          "attributes": {
            "NORMAL": 26,
            "POSITION": 25,
            "TANGENT": 27,
            "TEXCOORD_0": 28
          },
          "indices": 29,
          "material": 0,
          "mode": 4
        }
      ]
    },
    {
      "name": "Object_6",
      "primitives": [
        {
          "attributes": {
            "NORMAL": 31,
            "POSITION": 30,
            "TANGENT": 32,
            "TEXCOORD_0": 33
          },
          "indices": 34,
          "material": 0,
          "mode": 4
        }
      ]
    }
  ],
  "nodes": [
    {
      "children": [
        1
      ],
      "matrix": [
        1.0,
        0.0,
        0.0,
        0.0,
        0.0,
        2.220446049250313e-16,
        -1.0,
        0.0,
        0.0,
        1.0,
        2.220446049250313e-16,
        0.0,
        0.0,
        0.0,
        0.0,
        1.0
      ],
      "name": "Sketchfab_model"
    },
    {
      "children": [
        2,
        3,
        4,
        5,
        6,
        7,
        8
      ],
      "name": "buk_tex.obj.cleaner.materialmerger.gles"
    },
    {
      "mesh": 0,
      "name": "Object_2"
    },
    {
      "mesh": 1,
      "name": "Object_3"
    },
    {
      "mesh": 2,
      "name": "Object_4"
    },
    {
      "mesh": 3,
      "name": "Object_5"
    },
    {
      "mesh": 4,
      "name": "Object_6"
    },
    {
      "mesh": 5,
      "name": "Object_7"
    },
    {
      "mesh": 6,
      "name": "Object_8"
    }
  ],
  "samplers": [
    {
      "magFilter": 9729,
      "minFilter": 9987,
      "wrapS": 10497,
      "wrapT": 10497
    }
  ],
  "scene": 0,
  "scenes": [
    {
      "name": "Sketchfab_Scene",
      "nodes": [
        0
      ]
    }
  ],
  "textures": [
    {
      "sampler": 0,
      "source": 0
    },
    {
      "sampler": 0,
      "source": 1
    },
    {
      "sampler": 0,
      "source": 2
    }
  ]
}
