{
  "accessors": [
    {
      "bufferView": 2,
      "componentType": 5126,
      "count": 257,
      "max": [
        0.3420255780220032,
        0.3390348553657532,
        1.7099699974060059
      ],
      "min": [
        -0.3420252203941345,
        0.032388895750045776,
        1.3348658084869385
      ],
      "type": "VEC3"
    },
    {
      "bufferView": 2,
      "byteOffset": 3084,
      "componentType": 5126,
      "count": 257,
      "max": [
        0.6255010366439819,
        0.8915693163871765,
        0.7333986759185791
      ],
      "min": [
        -0.6255010366439819,
        0.4686944782733917,
        0.45288437604904175
      ],
      "type": "VEC3"
    },
    {
      "bufferView": 1,
      "componentType": 5126,
      "count": 257,
      "max": [
        0.6006801724433899,
        0.25
      ],
      "min": [
        0.5375000238418579,
        0.12499988079071045
      ],
      "type": "VEC2"
    },
    {
      "bufferView": 1,
      "byteOffset": 2056,
      "componentType": 5126,
      "count": 257,
      "max": [
        0.6006801724433899,
        0.25
      ],
      "min": [
        0.5375000238418579,
        0.12499988079071045
      ],
      "type": "VEC2"
    },
    {
      "bufferView": 0,
      "componentType": 5125,
      "count": 1344,
      "type": "SCALAR"
    },
    {
      "bufferView": 2,
      "byteOffset": 6168,
      "componentType": 5126,
      "count": 2600,
      "max": [
        0.7417962551116943,
        0.7218974828720093,
        0.6482213139533997
      ],
      "min": [
        -0.7417958974838257,
        0.034505695104599,
        -0.9959934949874878
      ],
      "type": "VEC3"
    },
    {
      "bufferView": 2,
      "byteOffset": 37368,
      "componentType": 5126,
      "count": 2600,
      "max": [
        0.99848473072052,
        0.9976807236671448,
        0.8907634615898132
      ],
      "min": [
        -0.99848473072052,
        -0.9998102784156799,
        -0.9992914199829102
      ],
      "type": "VEC3"
    },
    {
      "bufferView": 1,
      "byteOffset": 4112,
      "componentType": 5126,
      "count": 2600,
      "max": [
        0.882081925868988,
        0.491657555103302
      ],
      "min": [
        0.2510010302066803,
        0.09403073787689209
      ],
      "type": "VEC2"
    },
    {
      "bufferView": 1,
      "byteOffset": 24912,
      "componentType": 5126,
      "count": 2600,
      "max": [
        1.1466869115829468,
        0.8327322006225586
      ],
      "min": [
        0.012277400121092796,
        0.22978919744491577
      ],
      "type": "VEC2"
    },
    {
      "bufferView": 0,
      "byteOffset": 5376,
      "componentType": 5125,
      "count": 13056,
      "type": "SCALAR"
    },
    {
      "bufferView": 2,
      "byteOffset": 68568,
      "componentType": 5126,
      "count": 10463,
      "max": [
        4.596585273742676,
        0.7218974828720093,
        2.4303112030029297
      ],
      "min": [
        -4.596585273742676,
        -0.7478870749473572,
        -1.4342738389968872
      ],
      "type": "VEC3"
    },
    {
      "bufferView": 2,
      "byteOffset": 194124,
      "componentType": 5126,
      "count": 10463,
      "max": [
        0.9996377825737,
        0.9992141723632813,
        0.999987006187439
      ],
      "min": [
        -0.9996377825737,
        -0.9999988079071045,
        -0.9989164471626282
      ],
      "type": "VEC3"
    },
    {
      "bufferView": 1,
      "byteOffset": 45712,
      "componentType": 5126,
      "count": 10463,
      "max": [
        0.9999988675117493,
        1.0
      ],
      "min": [
        -0.0659213736653328,
        -2.384185791015625e-07
      ],
      "type": "VEC2"
    },
    {
      "bufferView": 1,
      "byteOffset": 129416,
      "componentType": 5126,
      "count": 10463,
      "max": [
        0.9989991784095764,
        1.0
      ],
      "min": [
        0.0,
        0.01687389612197876
      ],
      "type": "VEC2"
    },
    {
      "bufferView": 1,
      "byteOffset": 213120,
      "componentType": 5126,
      "count": 10463,
      "max": [
        0.9999988675117493,
        1.0
      ],
      "min": [
        -0.0659213736653328,
        -2.384185791015625e-07
      ],
      "type": "VEC2"
    },
    {
      "bufferView": 0,
      "byteOffset": 57600,
      "componentType": 5125,
      "count": 54144,
      "type": "SCALAR"
    },
    {
      "bufferView": 2,
      "byteOffset": 319680,
      "componentType": 5126,
      "count": 2946,
      "max": [
        2.894996404647827,
        0.31867170333862305,
        -0.2968721389770508
      ],
      "min": [
        -2.894995927810669,
        -0.18968909978866577,
        -0.9959934949874878
      ],
      "type": "VEC3"
    },
    {
      "bufferView": 2,
      "byteOffset": 355032,
      "componentType": 5126,
      "count": 2946,
      "max": [
        0.750723659992218,
        0.9669707417488098,
        0.999029278755188
      ],
      "min": [
        -0.750723659992218,
        -0.9668083786964417,
        -0.9999617338180542
      ],
      "type": "VEC3"
    },
    {
      "bufferView": 1,
      "byteOffset": 296824,
      "componentType": 5126,
      "count": 2946,
      "max": [
        0.9989991188049316,
        0.9989989995956421
      ],
      "min": [
        0.0010010009864345193,
        0.0010008811950683594
      ],
      "type": "VEC2"
    },
    {
      "bufferView": 1,
      "byteOffset": 320392,
      "componentType": 5126,
      "count": 2946,
      "max": [
        0.919660747051239,
        0.506935715675354
      ],
      "min": [
        0.2510010302066803,
        0.02000904083251953
      ],
      "type": "VEC2"
    },
    {
      "bufferView": 0,
      "byteOffset": 274176,
      "componentType": 5125,
      "count": 13632,
      "type": "SCALAR"
    },
    {
      "bufferView": 2,
      "byteOffset": 390384,
      "componentType": 5126,
      "count": 588,
      "max": [
        0.7096494436264038,
        0.17491650581359863,
        -0.9084079265594482
      ],
      "min": [
        -0.7096490859985352,
        0.059453755617141724,
        -0.957298219203949
      ],
      "type": "VEC3"
    },
    {
      "bufferView": 2,
      "byteOffset": 397440,
      "componentType": 5126,
      "count": 588,
      "max": [
        0.13580238819122314,
        0.02880050428211689,
        -0.9882104992866516
      ],
      "min": [
        -0.135802760720253,
        -0.0884009376168251,
        -0.9995325207710266
      ],
      "type": "VEC3"
    },
    {
      "bufferView": 1,
      "byteOffset": 343960,
      "componentType": 5126,
      "count": 588,
      "max": [
        0.8367645740509033,
        0.47304612398147583
      ],
      "min": [
        0.2575725018978119,
        0.22348588705062866
      ],
      "type": "VEC2"
    },
    {
      "bufferView": 1,
      "byteOffset": 348664,
      "componentType": 5126,
      "count": 588,
      "max": [
        0.25534188747406006,
        0.18231099843978882
      ],
      "min": [
        0.24219770729541779,
        0.14316630363464355
      ],
      "type": "VEC2"
    },
    {
      "bufferView": 0,
      "byteOffset": 328704,
      "componentType": 5125,
      "count": 2880,
      "type": "SCALAR"
    },
    {
      "bufferView": 2,
      "byteOffset": 404496,
      "componentType": 5126,
      "count": 517,
      "max": [
        2.9113965034484863,
        0.6607021689414978,
        0.5597906708717346
      ],
      "min": [
        -2.911396026611328,
        -0.12385627627372742,
        -0.8352940678596497
      ],
      "type": "VEC3"
    },
    {
      "bufferView": 2,
      "byteOffset": 410700,
      "componentType": 5126,
      "count": 517,
      "max": [
        0.6182942986488342,
        0.9805806875228882,
        0.9891211986541748
      ],
      "min": [
        -0.6182942986488342,
        0.14710316061973572,
        -0.819060206413269
      ],
      "type": "VEC3"
    },
    {
      "bufferView": 1,
      "byteOffset": 353368,
      "componentType": 5126,
      "count": 517,
      "max": [
        0.9989991188049316,
        0.9989989995956421
      ],
      "min": [
        0.0010010011028498411,
        0.0010008811950683594
      ],
      "type": "VEC2"
    },
    {
      "bufferView": 1,
      "byteOffset": 357504,
      "componentType": 5126,
      "count": 517,
      "max": [
        0.9989991188049316,
        0.9989989995956421
      ],
      "min": [
        0.2510010302066803,
        0.09403073787689209
      ],
      "type": "VEC2"
    },
    {
      "bufferView": 0,
      "byteOffset": 340224,
      "componentType": 5125,
      "count": 2496,
      "type": "SCALAR"
    },
    {
      "bufferView": 2,
      "byteOffset": 416904,
      "componentType": 5126,
      "count": 81,
      "max": [
        0.3827384114265442,
        0.13875140249729156,
        0.1553288847208023
      ],
      "min": [
        -0.9182652235031128,
        -0.29533323645591736,
        -0.5154322981834412
      ],
      "type": "VEC3"
    },
    {
      "bufferView": 2,
      "byteOffset": 417876,
      "componentType": 5126,
      "count": 81,
      "max": [
        -0.31469324231147766,
        0.9452049732208252,
        0.10559393465518951
      ],
      "min": [
        -0.33818569779396057,
        0.9371603727340698,
        0.05280240252614021
      ],
      "type": "VEC3"
    },
    {
      "bufferView": 1,
      "byteOffset": 361640,
      "componentType": 5126,
      "count": 81,
      "max": [
        1.05024254322052,
        0.7888709306716919
      ],
      "min": [
        0.05024252086877823,
        0.27329879999160767
      ],
      "type": "VEC2"
    },
    {
      "bufferView": 1,
      "byteOffset": 362288,
      "componentType": 5126,
      "count": 81,
      "max": [
        0.5614990592002869,
        0.11011010408401489
      ],
      "min": [
        0.5458741188049316,
        0.11010998487472534
      ],
      "type": "VEC2"
    },
    {
      "bufferView": 1,
      "byteOffset": 362936,
      "componentType": 5126,
      "count": 81,
      "max": [
        1.05024254322052,
        0.7888709306716919
      ],
      "min": [
        0.05024252086877823,
        0.27329879999160767
      ],
      "type": "VEC2"
    },
    {
      "bufferView": 0,
      "byteOffset": 350208,
      "componentType": 5125,
      "count": 384,
      "type": "SCALAR"
    },
    {
      "bufferView": 2,
      "byteOffset": 418848,
      "componentType": 5126,
      "count": 81,
      "max": [
        0.9014369249343872,
        0.15742744505405426,
        0.146572545170784
      ],
      "min": [
        -0.3995667099952698,
        -0.27665719389915466,
        -0.5241886377334595
      ],
      "type": "VEC3"
    },
    {
      "bufferView": 2,
      "byteOffset": 419820,
      "componentType": 5126,
      "count": 81,
      "max": [
        0.33818569779396057,
        0.9452049732208252,
        0.10559393465518951
      ],
      "min": [
        0.31469324231147766,
        0.9371603727340698,
        0.05280240252614021
      ],
      "type": "VEC3"
    },
    {
      "bufferView": 1,
      "byteOffset": 363584,
      "componentType": 5126,
      "count": 81,
      "max": [
        0.9497575759887695,
        0.7888709306716919
      ],
      "min": [
        -0.05024249106645584,
        0.27329879999160767
      ],
      "type": "VEC2"
    },
    {
      "bufferView": 1,
      "byteOffset": 364232,
      "componentType": 5126,
      "count": 81,
      "max": [
        0.5614990592002869,
        0.11011010408401489
      ],
      "min": [
        0.5458741188049316,
        0.11010998487472534
      ],
      "type": "VEC2"
    },
    {
      "bufferView": 1,
      "byteOffset": 364880,
      "componentType": 5126,
      "count": 81,
      "max": [
        0.9497575759887695,
        0.7888709306716919
      ],
      "min": [
        -0.05024249106645584,
        0.27329879999160767
      ],
      "type": "VEC2"
    },
    {
      "bufferView": 0,
      "byteOffset": 351744,
      "componentType": 5125,
      "count": 384,
      "type": "SCALAR"
    }
  ],
  "asset": {
    "extras": {
      "author": "VertaScan (https://sketchfab.com/VertaScan)",
      "license": "CC-BY-4.0 (http://creativecommons.org/licenses/by/4.0/)",
      "source": "https://sketchfab.com/3d-models/silver-wing-f171cbff472e4e73acfeca86409d69b6",
      "title": "Silver WIng"
    },
    "generator": "Sketchfab-15.68.0",
    "version": "2.0"
  },
  "bufferViews": [
    {
      "buffer": 0,
      "byteLength": 353280,
      "name": "floatBufferViews",
      "target": 34963
    },
    {
      "buffer": 0,
      "byteLength": 365528,
      "byteOffset": 353280,
      "byteStride": 8,
      "name": "floatBufferViews",
      "target": 34962
    },
    {
      "buffer": 0,
      "byteLength": 420792,
      "byteOffset": 718808,
      "byteStride": 12,
      "name": "floatBufferViews",
      "target": 34962
    }
  ],
  "buffers": [
    {
      "byteLength": 1139600,
      "uri": "scene.bin"
    }
  ],
  "extensionsUsed": [
    "KHR_materials_emissive_strength",
    "KHR_materials_clearcoat"
  ],
  "images": [
    {
      "uri": "textures/wing_mat_1_baseColor.jpeg"
    },
    {
      "uri": "textures/wing_mat_1_emissive.png"
    },
    {
      "uri": "textures/vent_trim_baseColor.jpeg"
    },
    {
      "uri": "textures/side_vent_baseColor.jpeg"
    }
  ],
  "materials": [
    {
      "doubleSided": true,
      "name": "glass",
      "pbrMetallicRoughness": {
        "baseColorFactor": [
          0.003642,
          0.003642,
          0.003642,
          1.0
        ],
        "roughnessFactor": 0.0
      }
    },
    {
      "doubleSided": true,
      "name": "TRIM",
      "pbrMetallicRoughness": {
        "baseColorFactor": [
          0.246191,
          0.246191,
          0.246191,
          1.0
        ],
        "roughnessFactor": 0.276923
      }
    },
    {
      "doubleSided": true,
      "emissiveFactor": [
        1.0,
        1.0,
        1.0
      ],
      "emissiveTexture": {
        "index": 1
      },
      "extensions": {
        "KHR_materials_clearcoat": {
          "clearcoatFactor": 1.0,
          "clearcoatRoughnessFactor": 1.0
        },
        "KHR_materials_emissive_strength": {
          "emissiveStrength": 10.0
        }
      },
      "name": "wing_mat_1",
      "pbrMetallicRoughness": {
        "baseColorTexture": {
          "index": 0
        },
        "roughnessFactor": 0.0
      }
    },
    {
      "doubleSided": true,
      "name": "vent_trim",
      "pbrMetallicRoughness": {
        "baseColorTexture": {
          "index": 2
        },
        "metallicFactor": 0.623077,
        "roughnessFactor": 0.838462
      }
    },
    {
      "doubleSided": true,
      "emissiveFactor": [
        1.0,
        0.0190927,
        0.0
      ],
      "extensions": {
        "KHR_materials_emissive_strength": {
          "emissiveStrength": 10.0
        }
      },
      "name": "burner",
      "pbrMetallicRoughness": {
        "baseColorFactor": [
          0.0,
          0.0,
          0.0,
          1.0
        ]
      }
    },
    {
      "doubleSided": true,
      "name": "side_vent",
      "pbrMetallicRoughness": {
        "baseColorTexture": {
          "index": 3
        },
        "metallicFactor": 0.0,
        "roughnessFactor": 0.5
      }
    }
  ],
  "meshes": [
    {
      "name": "Object_0",
      "primitives": [
        {
          "attributes": {
            "NORMAL": 1,
            "POSITION": 0,
            "TEXCOORD_0": 2,
            "TEXCOORD_1": 3
          },
          "indices": 4,
          "material": 0,
          "mode": 4
        }
      ]
    },
    {
      "name": "Object_1",
      "primitives": [
        {
          "attributes": {
            "NORMAL": 6,
            "POSITION": 5,
            "TEXCOORD_0": 7,
            "TEXCOORD_1": 8
          },
          "indices": 9,
          "material": 1,
          "mode": 4
        }
      ]
    },
    {
      "name": "Object_2",
      "primitives": [
        {
          "attributes": {
            "NORMAL": 11,
            "POSITION": 10,
            "TEXCOORD_0": 12,
            "TEXCOORD_1": 13,
            "TEXCOORD_2": 14
          },
          "indices": 15,
          "material": 2,
          "mode": 4
        }
      ]
    },
    {
      "name": "Object_3",
      "primitives": [
        {
          "attributes": {
            "NORMAL": 17,
            "POSITION": 16,
            "TEXCOORD_0": 18,
            "TEXCOORD_1": 19
          },
          "indices": 20,
          "material": 3,
          "mode": 4
        }
      ]
    },
    {
      "name": "Object_4",
      "primitives": [
        {
          "attributes": {
            "NORMAL": 22,
            "POSITION": 21,
            "TEXCOORD_0": 23,
            "TEXCOORD_1": 24
          },
          "indices": 25,
          "material": 4,
          "mode": 4
        }
      ]
    },
    {
      "name": "Object_5",
      "primitives": [
        {
          "attributes": {
            "NORMAL": 27,
            "POSITION": 26,
            "TEXCOORD_0": 28,
            "TEXCOORD_1": 29
          },
          "indices": 30,
          "material": 5,
          "mode": 4
        }
      ]
    },
    {
      "name": "Object_6",
      "primitives": [
        {
          "attributes": {
            "NORMAL": 32,
            "POSITION": 31,
            "TEXCOORD_0": 33,
            "TEXCOORD_1": 34,
            "TEXCOORD_2": 35
          },
          "indices": 36,
          "material": 2,
          "mode": 4
        }
      ]
    },
    {
      "name": "Object_7",
      "primitives": [
        {
          "attributes": {
            "NORMAL": 38,
            "POSITION": 37,
            "TEXCOORD_0": 39,
            "TEXCOORD_1": 40,
            "TEXCOORD_2": 41
          },
          "indices": 42,
          "material": 2,
          "mode": 4
        }
      ]
    }
  ],
  "nodes": [
    {
      "children": [
        1
      ],
      "matrix": [
        1.0,
        0.0,
        0.0,
        0.0,
        0.0,
        2.220446049250313e-16,
        -1.0,
        0.0,
        0.0,
        1.0,
        2.220446049250313e-16,
        0.0,
        0.0,
        0.0,
        0.0,
        1.0
      ],
      "name": "Sketchfab_model"
    },
    {
      "children": [
        2
      ],
      "name": "root"
    },
    {
      "children": [
        3,
        10,
        12
      ],
      "matrix": [
        1.0,
        0.0,
        0.0,
        0.0,
        0.0,
        2.220446049250313e-16,
        1.0,
        0.0,
        0.0,
        -1.0,
        2.220446049250313e-16,
        0.0,
        0.0,
        0.0,
        0.0,
        1.0
      ],
      "name": "GLTF_SceneRootNode"
    },
    {
      "children": [
        4,
        5,
        6,
        7,
        8,
        9
      ],
      "matrix": [
        0.75,
        0.0,
        0.0,
        0.0,
        0.0,
        0.75,
        0.0,
        0.0,
        0.0,
        0.0,
        1.5,
        0.0,
        0.0,
        1.1784148216247559,
        -1.188856840133667,
        1.0
      ],
      "name": "surfer_0"
    },
    {
      "mesh": 0,
      "name": "Object_4"
    },
    {
      "mesh": 1,
      "name": "Object_5"
    },
    {
      "mesh": 2,
      "name": "Object_6"
    },
    {
      "mesh": 3,
      "name": "Object_7"
    },
    {
      "mesh": 4,
      "name": "Object_8"
    },
    {
      "mesh": 5,
      "name": "Object_9"
    },
    {
      "children": [
        11
      ],
      "matrix": [
        0.75,
        0.0,
        0.0,
        0.0,
        0.0,
        0.75,
        0.0,
        0.0,
        0.0,
        0.0,
        1.5,
        0.0,
        -1.8784732818603516,
        1.2163002490997314,
        -1.4088129997253418,
        1.0
      ],
      "name": "surfer.002_1"
    },
    {
      "mesh": 6,
      "name": "Object_11"
    },
    {
      "children": [
        13
      ],
      "matrix": [
        0.75,
        0.0,
        0.0,
        0.0,
        0.0,
        0.75,
        0.0,
        0.0,
        0.0,
        0.0,
        1.5,
        0.0,
        1.891094446182251,
        1.2022932767868042,
        -1.3956785202026367,
        1.0
      ],
      "name": "surfer.003_2"
    },
    {
      "mesh": 7,
      "name": "Object_13"
    }
  ],
  "samplers": [
    {
      "magFilter": 9729,
      "minFilter": 9987,
      "wrapS": 10497,
      "wrapT": 10497
    }
  ],
  "scene": 0,
  "scenes": [
    {
      "name": "Sketchfab_Scene",
      "nodes": [
        0
      ]
    }
  ],
  "textures": [
    {
      "sampler": 0,
      "source": 0
    },
    {
      "sampler": 0,
      "source": 1
    },
    {
      "sampler": 0,
      "source": 2
    },
    {
      "sampler": 0,
      "source": 3
    }
  ]
}
